# xmcd
#
# Track frame offsets:
#	150
#	10977
#	28957
#	45507
#	58015
#	70301
#	79453
#	90999
#	102384
#	114506
#	129526
#	139532
#
# Disc length: 2043 seconds
#
# Revision: 0
# Processed by: cddbd v1.5.2PL0 Copyright (c) Steve Scherf et al.
# Submitted via: EasyCDDAExtractor 10.0.3.1
#
DISCID=a107f90c
DTITLE=Willie Nelson - Classic Singer
DYEAR=2007
DGENRE=Country
TTITLE0=Touch Me
TTITLE1=Crazy
TTITLE2=Don't You Ever Get Tired Of Hurting Me
TTITLE3=You Nearly Loose Your Mind
TTITLE4=Shelter Of Your Arms
TTITLE5=Right From Wrong
TTITLE6=December Days
TTITLE7=I'm Going To Lose A Lot Of Teardrops
TTITLE8=Following Me Around
TTITLE9=And So Will You My Love
TTITLE10=A new Way To Cry
TTITLE11=No Tomorrow In Sight
EXTD=
EXTT0=
EXTT1=
EXTT2=
EXTT3=
EXTT4=
EXTT5=
EXTT6=
EXTT7=
EXTT8=
EXTT9=
EXTT10=
EXTT11=
PLAYORDER=
